<svg width="2226" height="485" viewBox="0 0 2226 485" fill="none" xmlns="http://www.w3.org/2000/svg">
<path d="M1970.92 374.516C1935.02 371.981 1924.78 331.32 1951.04 314.184C1963.52 306.478 1968.58 295.73 1969.19 272.611C1969.6 255.982 1968.89 238.136 1968.79 226.577C1968.48 205.993 1964.83 202.748 1952.06 192.811C1931.37 176.385 1934.92 148.399 1959.76 135.217C1974.36 127.613 1985.11 122.036 2000.53 115.546C2013.81 110.071 2024.96 110.476 2033.68 115.039C2050.92 123.05 2058.93 123.455 2075.56 118.081C2135.99 98.7143 2193.99 129.032 2193.08 195.448C2192.57 233.269 2191.86 246.552 2192.47 271.09C2193.08 296.44 2197.34 305.971 2210.93 313.88C2237.59 330.205 2226.64 371.981 2190.75 374.516C2165.3 376.239 2135.38 376.239 2109.22 374.617C2096.45 373.806 2086.81 367.925 2080.93 360.016C2075.05 367.823 2065.62 373.603 2052.95 374.516C2025.87 376.239 1998.09 376.239 1970.92 374.516ZM2055.18 271.09C2056.4 299.887 2061.06 305.768 2074.85 314.894C2077.28 316.516 2079.31 318.443 2081.03 320.572C2083.57 317.327 2086.81 314.488 2090.97 312.156C2101.42 306.681 2105.88 299.684 2106.79 269.873C2107.2 255.982 2107.2 229.213 2106.79 207.108C2106.28 186.423 2088.44 177.297 2072.11 185.713C2062.68 190.276 2055.58 201.329 2055.18 219.175C2054.77 242.8 2054.77 260.748 2055.18 271.09Z" fill="#6E57F9"/>
<path d="M1895.68 376.341C1882.8 380.599 1870.03 381.208 1862.02 377.051C1847.11 369.851 1841.74 368.939 1820.44 375.023C1758.69 393.578 1703.33 361.537 1704.34 297.758C1705.05 251.825 1705.36 235.5 1704.95 214.916C1704.65 192.507 1700.29 188.248 1681.53 173.647C1662.16 157.829 1670.07 121.529 1702.72 116.357C1717.52 114.127 1729.59 112.707 1745.1 111.592C1773.7 109.564 1790.63 122.036 1790.63 151.542V280.723C1790.63 306.478 1808.99 314.184 1825.41 305.667C1835.25 300.8 1842.24 289.24 1842.34 277.073C1842.45 258.111 1842.55 241.685 1842.24 216.944C1841.94 194.839 1837.98 187.741 1822.67 177.196C1800.26 160.871 1806.75 121.731 1840.62 116.357C1858.47 113.62 1868.4 112.707 1883.01 111.592C1911.6 109.564 1928.53 122.036 1928.53 148.703V255.373C1928.53 286.604 1930.97 290.254 1946.58 297.048C1971.53 308.506 1970.61 345.617 1940.4 359.407C1925.9 365.998 1914.44 370.155 1895.68 376.341Z" fill="#6E57F9"/>
<path d="M1551.74 374.515C1518.38 372.589 1506.41 331.523 1531.97 314.386C1547.18 304.652 1550.62 299.582 1551.03 268.555C1551.33 240.772 1551.54 221.709 1551.03 205.384C1550.62 192.202 1547.79 187.944 1542.21 185.814L1537.65 184.496C1513.21 174.965 1511.48 137.549 1536.23 124.469C1548.09 118.486 1551.23 114.126 1552.45 103.987C1561.88 19.928 1650.1 -15.8653 1703.13 6.54355C1780.09 38.9908 1715.09 133.899 1661.45 88.4728C1648.07 76.3051 1636.81 84.0113 1636.61 96.5846C1636.61 99.4237 1636.71 101.654 1636.81 106.522C1636.81 112.403 1641.58 116.965 1651.51 116.763C1655.06 116.763 1657.9 116.763 1661.35 116.661C1712.86 115.546 1711.54 190.783 1661.76 189.668C1656.58 189.566 1654.46 189.769 1650.5 189.668C1642.19 189.262 1637.12 195.244 1636.81 207.412C1636.31 220.188 1636.31 234.789 1636.81 266.831C1637.22 294.208 1640.36 300.292 1665 311.852C1693.09 325.844 1685.38 372.487 1646.85 374.515C1612.78 376.239 1584.49 376.239 1551.74 374.515Z" fill="#6E57F9"/>
<path d="M1481.27 383.844C1451.76 383.844 1427.73 359.711 1427.73 330.103C1427.73 300.191 1452.07 276.971 1481.27 276.971C1510.57 276.971 1534.91 300.191 1534.91 330.103C1534.91 359.711 1510.77 383.844 1481.27 383.844Z" fill="#6E57F9"/>
<path d="M1364.86 380.802C1318.53 380.802 1290.54 348.558 1290.54 308.1C1290.54 278.087 1290.64 243.206 1290.84 215.93C1291.05 194.028 1289.53 192.203 1273.61 179.528C1258.19 166.853 1259.11 143.735 1274.21 128.424C1287.09 115.749 1304.23 99.2213 1319.54 84.8228C1339.31 66.4699 1366.49 73.4663 1374.4 94.557L1376.02 101.858C1379.77 113.214 1385.45 116.763 1392.24 116.763H1402.48C1452.27 116.56 1452.27 190.783 1402.48 189.668C1397.72 189.566 1394.17 189.769 1390.21 189.668C1381.19 189.364 1377.34 195.955 1377.34 203.864C1377.13 230.227 1376.93 244.828 1376.93 274.943C1376.93 292.789 1389 296.237 1406.84 289.747C1432.29 281.838 1456.12 309.317 1440.71 337.1C1430.37 355.656 1404.21 380.802 1364.86 380.802Z" fill="#6E57F9"/>
<path d="M1179.1 380.802C1101.33 380.802 1053.27 318.646 1053.27 248.783C1053.27 175.168 1104.27 110.375 1187.42 110.375C1240.15 110.375 1274.32 136.434 1284.96 164.724C1308.69 227.692 1220.78 259.024 1196.95 194.434C1192.39 181.86 1185.8 175.979 1174.44 175.979C1156.59 175.979 1144.63 192.203 1144.63 232.153C1144.63 283.765 1165.62 303.943 1192.08 303.943C1208.91 303.943 1220.07 298.366 1231.83 286.198C1259.11 258.111 1300.88 287.314 1284.66 321.282C1269.55 353.324 1230.82 380.802 1179.1 380.802Z" fill="#6E57F9"/>
<path d="M959.781 374.515C923.987 372.589 913.949 330.509 940.008 313.981C953.899 305.565 958.057 295.831 958.462 269.062C958.564 264.6 958.564 243.307 958.462 226.171C958.361 207.006 954.609 202.95 941.225 192.709C921.249 176.688 923.075 150.629 945.99 136.941C956.13 130.958 964.343 126.7 973.672 122.542C955.725 113.923 943.05 95.7733 943.05 74.6826C943.05 44.7703 967.892 20.6377 997.5 20.6377C1027.31 20.6377 1052.15 43.9591 1052.15 72.9588C1052.15 90.602 1043.53 106.724 1030.25 116.864C1039.07 122.846 1044.45 133.595 1044.45 148.297C1044.14 198.692 1044.04 239.555 1044.55 269.264C1045.06 299.278 1048.4 305.261 1061.99 313.068C1088.96 329.596 1078.82 372.589 1042.12 374.515C1014.33 376.036 988.983 376.036 959.781 374.515Z" fill="#6E57F9"/>
<path d="M786.188 380.802C730.825 380.802 672.015 334.666 672.015 250.405C672.015 168.475 726.871 110.882 802.412 110.882C809.205 110.882 813.464 111.49 820.258 112.91C831.918 114.735 838.205 111.49 838.205 104.088V102.06C838.205 97.2944 835.569 91.6161 827.66 87.9658C799.573 74.6827 802.716 40.6131 827.051 27.0258C841.45 19.1168 856.152 11.8162 870.652 5.83377C899.551 -6.13114 924.494 7.15194 924.393 42.4383C924.089 135.42 924.089 193.825 924.494 263.89C924.596 283.257 928.145 291.166 942.543 297.453C968.095 309.114 965.763 344.907 937.372 358.697C921.554 366.302 906.04 372.284 891.642 376.34C878.46 379.991 867.509 379.382 859.397 374.718C847.635 368.127 838.712 367.823 825.125 372.893C813.261 377.76 801.499 380.802 786.188 380.802ZM763.374 237.933C763.374 280.216 780.206 308.1 806.164 308.1C824.922 308.1 838.205 295.02 838.205 269.062V210.657C838.205 189.465 823.908 176.384 804.44 176.384C779.597 176.384 763.374 196.968 763.374 237.933Z" fill="#6E57F9"/>
<path d="M575.586 380.802C502.174 380.802 449.346 325.54 449.346 247.059C449.346 164.724 511.908 110.882 578.932 110.882C638.351 110.882 687.528 153.773 686.92 216.234C686.717 238.541 672.724 254.461 646.564 254.461H568.488C550.54 254.461 543.747 262.877 547.498 275.45C551.757 294.614 568.792 303.943 588.463 303.943C603.267 303.943 614.725 299.988 628.312 285.894C655.487 257.807 698.378 287.516 679.721 322.6C654.574 369.648 607.931 380.802 575.586 380.802ZM553.379 184.293C552.061 188.349 557.841 190.174 568.792 190.174H573.456C585.32 190.174 591.404 188.654 590.897 183.989C590.491 179.731 583.799 175.979 572.848 175.979C562.201 175.979 554.799 179.731 553.379 184.293Z" fill="#6E57F9"/>
<path d="M301.001 374.515C267.134 371.777 254.966 331.624 281.634 314.285C291.977 307.998 299.176 297.859 299.784 272.509C300.19 256.387 299.886 245.233 299.48 226.171C299.074 207.919 293.903 201.125 282.851 193.115C261.456 177.398 265.613 149.615 289.949 135.623C304.144 127.511 316.92 121.427 331.927 115.343C345.007 109.969 355.654 110.476 364.273 115.242C381.004 123.455 383.336 124.57 400.371 117.878C410.308 113.417 419.23 110.882 428.965 110.882C514.341 110.882 481.996 233.978 414.059 204.066C396.619 195.954 385.871 206.195 385.566 232.457C385.364 242.8 385.364 259.125 385.668 272.104C385.871 294.817 389.217 303.841 403.818 308.1C444.073 320.876 437.178 371.98 395.706 374.515C360.521 376.645 326.857 376.645 301.001 374.515Z" fill="#6E57F9"/>
<path d="M34.4268 482.504C-0.555328 479.664 -12.216 439.511 15.1613 421.969C28.343 414.162 33.2101 403.515 33.3115 380.599C33.717 315.907 33.717 301.103 33.6156 245.233C33.5142 214.104 29.4583 206.905 11.511 189.262C-4.91542 172.937 0.458649 148.399 22.8675 135.724C37.1646 127.612 50.1434 121.528 65.7587 115.343C80.5627 109.259 92.4262 110.07 100.741 115.647C111.185 122.238 122.034 123.151 134.912 118.182C146.066 113.518 157.523 110.882 169.894 110.882C226.677 110.882 285.791 154.99 285.791 242.496C285.791 327.771 227.691 380.802 153.265 380.802C148.702 380.802 144.443 379.991 140.996 379.18C124.772 377.76 119.702 381.917 119.702 390.637V397.837C119.702 408.889 121.325 413.452 134.709 419.536C164.723 433.934 154.887 479.36 117.37 482.504C91.8178 484.633 60.8916 484.633 34.4268 482.504ZM119.702 276.565C119.702 300.596 133.188 315.198 155.8 315.198C182.467 315.198 194.432 295.729 194.432 254.968C194.432 208.325 179.527 183.482 153.265 183.482C132.377 183.482 119.702 199.402 119.702 225.866V276.565Z" fill="#6E57F9"/>
</svg>
